<svg width="32" height="32" viewBox="0 0 32 32" fill="none" xmlns="http://www.w3.org/2000/svg">
<g clip-path="url(#clip0_414_756)">
<path d="M28 10H22V6C22 5.46957 21.7893 4.96086 21.4142 4.58579C21.0391 4.21071 20.5304 4 20 4H12C11.4696 4 10.9609 4.21071 10.5858 4.58579C10.2107 4.96086 10 5.46957 10 6V10H4C3.46957 10 2.96086 10.2107 2.58579 10.5858C2.21071 10.9609 2 11.4696 2 12V26C2 26.5304 2.21071 27.0391 2.58579 27.4142C2.96086 27.7893 3.46957 28 4 28H28C28.5304 28 29.0391 27.7893 29.4142 27.4142C29.7893 27.0391 30 26.5304 30 26V12C30 11.4696 29.7893 10.9609 29.4142 10.5858C29.0391 10.2107 28.5304 10 28 10ZM12 6H20V10H12V6ZM4 26V12H28V26H4Z" fill="white"/>
</g>
<defs>
<clipPath id="clip0_414_756">
<rect width="32" height="32" fill="white"/>
</clipPath>
</defs>
</svg>
