<svg width="32" height="32" viewBox="0 0 32 32" fill="none" xmlns="http://www.w3.org/2000/svg">
<g clip-path="url(#clip0_414_752)">
<path d="M26 24.0049H6C5.46975 24.0043 4.9614 23.7934 4.58646 23.4184C4.21152 23.0435 4.00061 22.5351 4 22.0049V8.00488C4.00053 7.47461 4.21141 6.96621 4.58637 6.59125C4.96133 6.2163 5.46973 6.00541 6 6.00488H26C26.5302 6.00549 27.0386 6.2164 27.4135 6.59134C27.7885 6.96628 27.9994 7.47464 28 8.00488V22.0049C27.9993 22.5351 27.7883 23.0434 27.4134 23.4183C27.0385 23.7932 26.5302 24.0042 26 24.0049ZM6 8.00488V22.0049H26V8.00488H6Z" fill="white"/>
<path d="M30 26.0049H2V28.0049H30V26.0049Z" fill="white"/>
</g>
<defs>
<clipPath id="clip0_414_752">
<rect width="32" height="32" fill="white"/>
</clipPath>
</defs>
</svg>
