<svg width="32" height="32" viewBox="0 0 32 32" fill="none" xmlns="http://www.w3.org/2000/svg">
<g clip-path="url(#clip0_414_1429)">
<path d="M7 28C6.73478 28 6.48043 27.8946 6.29289 27.7071C6.10536 27.5195 6 27.2652 6 27V4.99995C5.99999 4.82617 6.04526 4.65538 6.13136 4.50443C6.21746 4.35348 6.34141 4.22757 6.491 4.13911C6.64058 4.05066 6.81064 4.00271 6.9844 4C7.15816 3.99729 7.32963 4.03991 7.4819 4.12365L27.4819 15.1237C27.6388 15.2099 27.7697 15.3368 27.8608 15.4909C27.952 15.645 28 15.8208 28 15.9999C28 16.179 27.952 16.3548 27.8608 16.5089C27.7697 16.663 27.6388 16.7899 27.4819 16.8762L7.4819 27.8762C7.33425 27.9573 7.1685 27.9999 7 28ZM8 6.69085V25.3088L24.9248 16L8 6.69085Z" fill="url(#paint0_linear_414_1429)"/>
</g>
<defs>
<linearGradient id="paint0_linear_414_1429" x1="17" y1="3.99988" x2="17" y2="28" gradientUnits="userSpaceOnUse">
<stop stop-color="#018BD9"/>
<stop offset="0.505" stop-color="#018AD7"/>
<stop offset="1" stop-color="#017AC1"/>
</linearGradient>
<clipPath id="clip0_414_1429">
<rect width="32" height="32" fill="white"/>
</clipPath>
</defs>
</svg>
