<svg width="128" height="128" viewBox="0 0 128 128" fill="none" xmlns="http://www.w3.org/2000/svg">
<circle cx="64" cy="64" r="62.25" stroke="white" stroke-width="3.5"/>
<g clip-path="url(#clip0_721_965)">
<path d="M81.147 53.5001C80.3361 49.5297 78.1724 45.9638 75.0253 43.411C71.8781 40.8582 67.9426 39.4767 63.8903 39.5023C59.8381 39.5279 55.9203 40.959 52.8057 43.5514C49.691 46.1438 47.5726 49.7368 46.812 53.7171C43.5837 54.2938 40.6884 56.0586 38.6967 58.6639C36.705 61.2691 35.7613 64.5259 36.0515 67.7924C36.3417 71.0589 37.8448 74.0983 40.2647 76.3116C42.6845 78.5249 45.8456 79.7517 49.1249 79.7501H49.9999V76.2501H49.1249C46.6301 76.2518 44.2322 75.2839 42.4376 73.5509C40.6429 71.8179 39.5918 69.4554 39.5061 66.962C39.4205 64.4686 40.3071 62.0396 41.9787 60.1875C43.6503 58.3355 45.9761 57.2055 48.4652 57.036L49.9291 56.9361L50.0866 55.4774C50.4406 52.2215 51.9258 49.193 54.2834 46.9197C56.641 44.6464 59.7215 43.2724 62.9881 43.0371C66.2548 42.8018 69.5004 43.7202 72.1595 45.6322C74.8185 47.5442 76.7224 50.3285 77.5393 53.5001H81.147Z" fill="white"/>
<path d="M85 57H67.5C66.5721 57.0011 65.6824 57.3702 65.0263 58.0263C64.3702 58.6825 64.0011 59.5721 64 60.5V67.5H57C56.0721 67.5011 55.1825 67.8702 54.5263 68.5263C53.8702 69.1824 53.5011 70.0721 53.5 71V88.5H88.5V60.5C88.4989 59.5721 88.1298 58.6825 87.4737 58.0263C86.8176 57.3702 85.9279 57.0011 85 57ZM57 85V71H64V85H57ZM85 85H67.5V60.5H85V85Z" fill="white"/>
<path d="M74.5 64H71V71H74.5V64Z" fill="white"/>
<path d="M81.5 64H78V71H81.5V64Z" fill="white"/>
<path d="M74.5 74.5H71V81.5H74.5V74.5Z" fill="white"/>
<path d="M81.5 74.5H78V81.5H81.5V74.5Z" fill="white"/>
</g>
<defs>
<clipPath id="clip0_721_965">
<rect width="56" height="56" fill="white" transform="translate(36 36)"/>
</clipPath>
</defs>
</svg>
