<svg width="128" height="128" viewBox="0 0 128 128" fill="none" xmlns="http://www.w3.org/2000/svg">
<circle cx="64" cy="64" r="62.25" stroke="white" stroke-width="3.5"/>
<g clip-path="url(#clip0_721_977)">
<path d="M43 39.5H39.5V85C39.5 85.9283 39.8687 86.8185 40.5251 87.4749C41.1815 88.1312 42.0717 88.5 43 88.5H88.5V85H43V39.5Z" fill="white"/>
<path d="M88.5 51.75H76.25V55.25H82.5325L69.25 68.5325L61.7425 61.0075C61.5798 60.8435 61.3863 60.7133 61.173 60.6244C60.9598 60.5356 60.731 60.4899 60.5 60.4899C60.269 60.4899 60.0402 60.5356 59.827 60.6244C59.6137 60.7133 59.4202 60.8435 59.2575 61.0075L46.5 73.7825L48.9675 76.25L60.5 64.7175L68.0075 72.2425C68.1702 72.4065 68.3637 72.5367 68.577 72.6256C68.7902 72.7144 69.019 72.7601 69.25 72.7601C69.481 72.7601 69.7098 72.7144 69.923 72.6256C70.1363 72.5367 70.3298 72.4065 70.4925 72.2425L85 57.7175V64H88.5V51.75Z" fill="white"/>
</g>
<defs>
<clipPath id="clip0_721_977">
<rect width="56" height="56" fill="white" transform="translate(36 36)"/>
</clipPath>
</defs>
</svg>
