<svg width="128" height="128" viewBox="0 0 128 128" fill="none" xmlns="http://www.w3.org/2000/svg">
<circle cx="64" cy="64" r="62.25" stroke="white" stroke-width="3.5"/>
<g clip-path="url(#clip0_721_971)">
<path d="M64.875 60.5H71V57H67.5V55.25H64V57.0889C62.9383 57.3063 61.995 57.91 61.3529 58.7831C60.7109 59.6562 60.4157 60.7365 60.5246 61.8148C60.6336 62.893 61.1388 63.8925 61.9426 64.6195C62.7463 65.3465 63.7912 65.7494 64.875 65.75H66.625C66.8571 65.75 67.0796 65.8422 67.2437 66.0063C67.4078 66.1704 67.5 66.3929 67.5 66.625C67.5 66.8571 67.4078 67.0796 67.2437 67.2437C67.0796 67.4078 66.8571 67.5 66.625 67.5H60.5V71H64V72.75H67.5V70.9111C68.5617 70.6937 69.505 70.09 70.1471 69.2169C70.7891 68.3438 71.0843 67.2635 70.9754 66.1852C70.8664 65.107 70.3612 64.1075 69.5574 63.3805C68.7537 62.6535 67.7088 62.2506 66.625 62.25H64.875C64.6429 62.25 64.4204 62.1578 64.2563 61.9937C64.0922 61.8296 64 61.6071 64 61.375C64 61.1429 64.0922 60.9204 64.2563 60.7563C64.4204 60.5922 64.6429 60.5 64.875 60.5Z" fill="white"/>
<path d="M86.75 58.75H83.215C83.1646 57.3675 82.8311 56.0101 82.2351 54.7617C81.6391 53.5132 80.7933 52.4004 79.75 51.4919V44.75C79.75 44.425 79.6595 44.1064 79.4886 43.83C79.3178 43.5535 79.0733 43.3301 78.7826 43.1848C78.4919 43.0394 78.1665 42.9779 77.8428 43.0071C77.5192 43.0363 77.21 43.155 76.95 43.35L70.4164 48.25H62.25C52.6084 48.25 45.689 53.9221 44.8401 62.25H44.75C44.286 62.2496 43.8411 62.0651 43.513 61.737C43.1849 61.4089 43.0004 60.964 43 60.5V57H39.5V60.5C39.5015 61.8919 40.0551 63.2264 41.0394 64.2106C42.0236 65.1949 43.3581 65.7485 44.75 65.75H44.8725C45.1264 68.0446 45.8723 70.2574 47.0591 72.2375C48.246 74.2177 49.846 75.9185 51.75 77.2241V83.25C51.75 83.7141 51.9344 84.1592 52.2626 84.4874C52.5908 84.8156 53.0359 85 53.5 85H60.5C60.9641 85 61.4092 84.8156 61.7374 84.4874C62.0656 84.1592 62.25 83.7141 62.25 83.25V79.75H67.5V83.25C67.5 83.7141 67.6844 84.1592 68.0126 84.4874C68.3407 84.8156 68.7859 85 69.25 85H76.25C76.7141 85 77.1592 84.8156 77.4874 84.4874C77.8156 84.1592 78 83.7141 78 83.25V77.3651C79.2641 76.7658 80.3694 75.8773 81.2264 74.7715C82.0833 73.6657 82.668 72.3737 82.9329 71H86.75C87.2141 71 87.6592 70.8156 87.9874 70.4874C88.3156 70.1593 88.5 69.7141 88.5 69.25V60.5C88.5 60.0359 88.3156 59.5908 87.9874 59.2626C87.6592 58.9344 87.2141 58.75 86.75 58.75ZM85 67.5H79.967C79.4329 72.3176 78.5259 73.5994 74.5 75.0519V81.5H71V76.25H58.75V81.5H55.25V75.1613C53.1429 74.1588 51.3652 72.5764 50.1254 70.5996C48.8856 68.6227 48.235 66.3334 48.25 64C48.25 55.538 55.2817 51.75 62.25 51.75H71.5836L76.25 48.25V53.1087C80.4818 56.3625 79.597 58.6842 79.782 62.25H85V67.5Z" fill="white"/>
</g>
<defs>
<clipPath id="clip0_721_971">
<rect width="56" height="56" fill="white" transform="translate(36 36)"/>
</clipPath>
</defs>
</svg>
